<?xml version="1.0" encoding="utf-8"?>
<!-- Generator: Adobe Illustrator 24.0.2, SVG Export Plug-In . SVG Version: 6.00 Build 0)  -->
<svg version="1.1" xmlns="http://www.w3.org/2000/svg" xmlns:xlink="http://www.w3.org/1999/xlink" x="0px" y="0px"
	 viewBox="0 0 626.7 177.8" enable-background="new 0 0 626.7 177.8" xml:space="preserve">
<g id="Слой_1">
</g>
<g id="Слой_2">
</g>
<g id="Слой_3">
</g>
<g id="Слой_4">
	<g>
		<g>
			<g>
				<path fill="#647C00" d="M33.4,13.9c-1.4-0.1-2.8,0.5-3.6,1.7c-0.3,0.4-4.7,7.6-7.7,16.5c5.1,0,11.9,0.6,18.9,2.3
					c3-6.6,6.9-12.2,10.1-16.2C42.2,15,33.9,13.9,33.4,13.9z"/>
			</g>
		</g>
		<g>
			<g>
				<path fill="#647C00" d="M66.5,16.8c-1.5-0.6-3.2-0.3-4.3,0.8C61.8,18,54.7,25,49.5,34.9c3.2,0.6,12.6,2.5,22.3,7.4
					c5.2-6.5,10.7-11,13.6-13.1C76.7,21.3,67,17.1,66.5,16.8z"/>
			</g>
		</g>
		<g>
			<g>
				<path fill="#647C00" d="M14.6,40.4c-1.6,0.2-2.9,1.3-3.3,2.8c-0.2,0.6-3,10.8-2.3,22.4c3.5-0.9,10.4-2.3,18.7-2.3
					c2.3-10.6,6.7-19.1,8.3-22C25.1,39.2,15.2,40.3,14.6,40.4z"/>
			</g>
		</g>
		<g>
			<g>
				<path fill="#647C00" d="M47.3,42.5c-1.6-0.2-3.1,0.5-3.9,1.9c-0.3,0.5-5.1,8.8-7.7,19.5c3.9,0.5,7.9,1.4,11.9,2.8
					c1.7-2.8,2.8-4.6,6-6.1c3.1-1.5,5.3-1.2,8.5-0.8c1.4-4,3.2-7.7,5.3-11C57.3,44,47.8,42.5,47.3,42.5z"/>
			</g>
		</g>
		<g>
			<g>
				<path fill="#647C00" d="M9.2,73.7c-1.8,0.5-2.9,2.2-2.8,4.1c0,0.5,0.7,8.4,4.1,17.4l0.3-0.1c8.9-3,18.1-4.8,27.4-5.7
					c1.3-6,3.5-11.4,5.5-15.7C27.8,68.3,10.1,73.4,9.2,73.7z"/>
			</g>
		</g>
		<g>
			<g>
				<path fill="#647C00" d="M58.9,67.2c-1.4-0.1-2.8,0.5-3.6,1.7c-0.3,0.5-6.1,9.3-8.9,20c7.1-0.2,14.1,0,21.2,1
					c3.6-6.1,7.9-11.7,12.5-17.1C69.9,68.3,59.5,67.3,58.9,67.2z"/>
			</g>
		</g>
		<g>
			<g>
				<path fill="#647C00" d="M13.2,102.5c-1,0.3-1.9,1.1-2.3,2.1c-0.5,1-0.5,2.1-0.1,3.1c8.3,20.7,28.7,33.3,50.8,33.6
					c-0.9-1.6-1.7-3.4-2.2-5.2c-4.3-15.4,6.4-34,8.9-37.9C49.9,95.1,31,96.6,13.2,102.5z"/>
			</g>
		</g>
		<path fill="#647C00" d="M94,58.7C94,58.7,94,58.7,94,58.7l4.5-22.5c-0.6-0.6-1.3-1.1-2.1-1.5c-2.1-0.9-4.2-0.9-4.9-0.4
			c-0.8,0.5-15.9,11.1-21.8,26.9c4.6,1.1,10.2,2.8,15.6,5.6C87.3,64.8,90.2,62,94,58.7z"/>
		<path fill="#647C00" d="M84.6,106.3c-4.3-1.4-8.2-2.2-10.6-2.6c-3,5.2-10.1,19.4-7.1,30.2c0.7,2.6,2.1,4.8,3.9,6.7
			c2.4-0.3,4.8-0.8,7.2-1.4L84.6,106.3z"/>
		<path fill="#647C00" d="M91.8,71.4c-7.2,7.2-13.4,15.4-18.5,24.3c2,0.2,7.2,1,13.1,2.9L91.8,71.4z"/>
		<g>
			<g>
				<path fill="#2B2B2B" d="M93.5,139.5c1.1-1.9,2-3.7,2.6-5.4c0.6-1.7,1.3-4.2,2.1-7.6c0.7-3.4,1.7-8.7,3-16l7.3-41.8
					c0.1-0.4,0.2-0.7,0.2-1c0-0.3,0.1-0.6,0.1-0.8c1.3-6.6,2.1-11.5,2.5-14.6c0.4-3.1,0.6-5.5,0.6-7c0-1.6-0.3-3.3-0.8-5.2
					c5.9-0.6,11.1-0.9,15.8-1.2c4.7-0.2,10-0.3,16.1-0.3c11.5,0,19.6,2.2,24.4,6.5c4.8,4.3,6.6,10.1,5.3,17.3
					c-0.7,4.3-2.3,8-4.6,11.1c-2.3,3.1-5.9,5.7-10.7,7.8c-4.8,2.1-11.1,3.5-18.9,4.2V85c7.8-0.3,14.2,0.6,19.3,2.7
					c5.1,2.1,8.7,5.1,10.9,9.1c2.2,4,2.7,8.8,1.7,14.4c-1,5.7-3.1,10.8-6.4,15.3c-3.3,4.5-7.8,8.1-13.8,10.7c-5.9,2.7-13.1,4-21.7,4
					c-11.6,0-22.8-0.5-33.6-1.5L93.5,139.5z M118.4,121.6c0.7,1.2,2.4,2.2,5.1,2.9c2.7,0.7,5.2,1.1,7.7,1.1c5,0,9.5-1.5,13.2-4.5
					c3.8-3,6.1-7.3,7.2-12.8c1.4-7.7-0.6-13.1-5.8-16c-5.2-3-12.8-4.5-22.6-4.5l0.4-2.5c9.1-0.1,16-1.6,20.9-4.4
					c4.8-2.8,7.8-7.3,8.9-13.5c0.8-4.7,0-8.1-2.3-10.1c-2.4-2.1-6.2-3.1-11.6-3.1c-1,0-2,0-3.1,0.1c-1.1,0-2,0.1-3,0.2
					c-0.5,0.1-0.9,0.1-1.4,0.1c-0.5,0-1,0-1.4,0.1c-0.8,3-1.7,6.8-2.6,11.4c-0.9,4.5-2.2,11.4-3.7,20.7c-0.1,0.3-0.1,0.6-0.1,0.8
					c0,0.3,0,0.6-0.1,0.8c-0.9,5-1.7,9.5-2.3,13.2c-0.6,3.8-1.2,7-1.7,9.6L118.4,121.6z"/>
				<path fill="#2B2B2B" d="M207.6,140.9c-6.1,0-11.4-1.4-15.9-4.3c-4.5-2.8-7.8-6.9-9.8-12.1c-2-5.2-2.3-11.5-1-18.7
					c1.3-7.4,3.8-13.8,7.6-19.2c3.8-5.4,8.5-9.5,14-12.3c5.6-2.8,11.6-4.2,18.2-4.2c5.9,0,10.5,1.1,13.9,3.3
					c3.4,2.2,5.6,5.3,6.6,9.2c1,3.9,1,8.7,0,14.4c-0.3,1.6-0.7,3.4-1.3,5.4c-0.6,2.1-1.3,3.9-2.1,5.6h-43.4l1.1-5.6l28.5-4.8
					c0.6-0.5,1-1,1.2-1.7c0.3-0.6,0.5-1.3,0.6-2.1c0.6-2.7,0.3-5-0.7-7c-1-2-3.2-3-6.5-3c-3.2,0-6.2,0.8-8.9,2.5
					c-2.7,1.7-5,4.1-6.8,7.2c-1.8,3.1-3.2,6.6-4,10.7c-0.8,4.8-0.7,8.8,0.3,12.2c1.1,3.4,2.9,5.9,5.6,7.6c2.7,1.7,6,2.5,9.9,2.5
					c3.6,0,6.8-0.5,9.8-1.4c2.9-1,6.4-2.6,10.5-5l-5.1,16.8c-0.2,0.1-0.4,0.2-0.6,0.2c-0.2,0-0.4,0.1-0.6,0.2
					c-3.8,1.3-7.1,2.2-10,2.8C216,140.6,212.2,140.9,207.6,140.9z"/>
				<path fill="#2B2B2B" d="M237.1,160.4c0.9-2.8,1.7-5.8,2.2-9.1c0.1-0.5,0.2-0.9,0.2-1.2c0-0.4,0.1-0.8,0.2-1.2l3.4-19.4l13.9,2.3
					l-2.3,13.9c-0.7,4-1.1,7.2-1,9.4c0,2.2,0.4,4.2,1,6L237.1,160.4z M242.4,133.7c0.2-1.3,0.4-2.9,0.7-4.8l1-4.7
					c2.6,0.5,5.2,0.7,8,0.8c2.8,0.1,8.4,0.1,16.9,0.1h37.7c5.6,0,9.8,0,12.6-0.1c2.8-0.1,5.6-0.3,8.3-0.7c-0.1,0.6-0.2,1.2-0.3,1.7
					c-0.1,0.5-0.2,1-0.3,1.6c-0.1,0.7-0.2,1.6-0.4,2.5c-0.2,0.9-0.4,1.9-0.7,2.9l-2.1,9.6c-2.9-1-5.6-1.7-7.9-2.2
					c-2.3-0.5-5-0.7-8-0.8c-3-0.1-8.1-0.1-15.2-0.1h-6.2c-11.7,0-20.1,0-25.1,0.1c-5,0.1-9.1,0.4-12.4,0.8c-3.3,0.5-6,1.2-8.3,2.3
					L242.4,133.7z M251.1,125.5c1.7-0.6,3.1-1.7,4.3-3.6c1.2-1.8,2.2-4.2,3-7.2c0.8-2.9,1.9-7.5,3.4-13.8c0.2-0.6,0.3-1.3,0.4-1.9
					c0.1-0.6,0.2-1.4,0.4-2.2c1.4-5.7,2.3-10.1,2.7-13.4c0.4-3.2,0.5-5.6,0.3-7.2c-0.2-1.6-0.6-3.2-1.2-5h23.5
					c-1.4,2-2.4,4.4-3.1,7.2c-0.7,2.8-2,8.4-3.9,16.9l-0.4,1.5c-1.7,7.5-3.4,13.3-5.2,17.2c-1.8,3.9-4.3,6.9-7.4,8.7
					c-3.2,1.9-7.6,2.8-13.4,2.8L251.1,125.5z M278.1,85.4l2.5-14h32.6l-2.5,14H278.1z M317.9,115.1c-1.4,8.2-2.2,13.7-2.3,16.7
					c-0.2,2.9,0.1,5.5,1,7.7h-23.8c1.7-2.2,3-4.7,3.9-7.6c0.8-2.8,2-8.4,3.4-16.8l1.8-9.6l1.7-9.9c1.5-8.1,2.3-13.6,2.4-16.5
					c0.1-2.9-0.2-5.5-0.9-7.7h23.8c-1.7,2.1-2.9,4.6-3.8,7.5c-0.9,2.9-2,8.5-3.5,16.7l-1.8,9.9L317.9,115.1z M304.1,161.1
					c1.4-1.8,2.4-3.7,3.1-5.7c0.7-2,1.4-4.8,2-8.6l0.3-1.8l2.8-14.6l14.7-2.3l-3.6,20.1c-0.2,1.3-0.4,2.2-0.6,2.9
					c-0.5,3.1-0.7,6-0.8,8.5L304.1,161.1z"/>
				<path fill="#2B2B2B" d="M337.5,171.7c-0.5,0-0.9,0-1.3,0s-0.8,0-1.2,0c-2.4-0.1-4.5-0.3-6.4-0.6c-1.9-0.3-3.7-0.9-5.6-1.7
					l1-16.2c0.2,0.2,0.4,0.3,0.7,0.4c0.3,0.1,0.5,0.2,0.7,0.3c2.3,1.3,4.5,2.2,6.6,2.6c2.1,0.5,4.2,0.7,6.2,0.7
					c2.8,0,5.4-0.9,7.7-2.8c2.3-1.8,4.3-4.3,6.1-7.4c1.8-3.1,3.6-7,5.3-11.8c0.1-0.2,0.1-0.4,0.1-0.6c0-0.2,0-0.4,0.1-0.5l-3.7,10.2
					c-0.3-2.4-0.7-5.2-1.2-8.5c-0.5-3.3-1.1-7-1.9-11.4c-0.4-2-0.7-4.1-1.1-6.3c-0.4-2.2-0.7-4.5-1.1-7L344.8,89
					c-0.3-1.4-0.5-2.6-0.7-3.8c-0.2-1.1-0.4-2.2-0.6-3.2c-0.5-2-0.9-3.9-1.3-5.6c-0.4-1.7-0.9-3.4-1.6-5h23.1c-0.6,2-0.9,4.3-1,6.8
					c-0.1,2.5,0.1,6.2,0.7,10.9l1.5,12.5l0.6,5.1c0.4,4.8,0.6,9.4,0.6,13.8c0,4.5,0,8.7-0.2,12.7h-3.2c1.1-3.8,2.3-7.6,3.6-11.6
					c1.3-3.9,2.9-8,4.6-12.1l3.4-8l6.3-13.4c0.6-1.7,1.3-3.2,1.9-4.6c0.6-1.4,1.2-2.8,1.8-4.1c0.5-1.7,1-3.2,1.2-4.5
					s0.5-2.5,0.6-3.8h21.3c-2.7,3.8-5.6,8.8-8.9,15l-1.7,3.2l-10.9,20.6c-7.6,14.5-12.4,23.9-14.3,28.2c-3.6,7.9-7.1,14.2-10.5,19
					c-3.4,4.8-7.1,8.3-10.9,10.7C346.7,170.5,342.4,171.7,337.5,171.7z"/>
				<path fill="#2B2B2B" d="M424.5,115.1c-1.5,8.2-2.3,13.7-2.4,16.7c-0.1,2.9,0.2,5.5,0.9,7.7h-23.8c1.7-2.2,3-4.7,3.9-7.6
					c0.9-2.8,2-8.4,3.5-16.8l1.8-9.6l1.7-9.9c1.5-8.1,2.3-13.6,2.4-16.5c0.1-2.9-0.2-5.5-0.9-7.7h23.8c-1.7,2.1-3.1,4.6-4,7.5
					c-0.9,2.9-2.1,8.5-3.4,16.7l-1.7,9.9L424.5,115.1z M423,97.7h37.4l-2.6,14.6h-37.4L423,97.7z M470,115.1
					c-1.5,8.2-2.3,13.7-2.4,16.7c-0.1,2.9,0.2,5.5,0.9,7.7h-23.8c1.7-2.2,3-4.7,3.9-7.6c0.9-2.8,2-8.4,3.5-16.8l1.8-9.6l1.7-9.9
					c1.5-8.1,2.3-13.6,2.4-16.5c0.1-2.9-0.2-5.5-0.9-7.7h23.8c-1.7,2.1-2.9,4.6-3.9,7.5c-0.9,2.9-2.1,8.5-3.6,16.7l-1.7,9.9
					L470,115.1z"/>
				<path fill="#2B2B2B" d="M510.3,140.6c-10,0-19.5-0.4-28.6-1.1c1.5-2.5,2.5-5,3.2-7.7c0.6-2.7,1.7-7.9,3-15.8
					c0-0.2,0-0.3,0.1-0.4c0-0.1,0.1-0.2,0.1-0.4l3.4-19.5c1.4-8.3,2.1-13.8,2.3-16.7c0.1-2.9-0.2-5.4-0.9-7.5h23.8
					c-1.7,2.1-3.1,4.6-3.9,7.6c-0.9,2.9-2,8.5-3.4,16.7c-0.9,5.3-1.7,10-2.4,14.1c-0.7,4.1-1.3,7.1-1.7,9c-0.6,3-0.2,5.1,1.2,6.1
					c1.3,1.1,3.2,1.6,5.6,1.6c2.8,0,5.4-0.9,7.8-2.8c2.3-1.8,3.8-4.5,4.5-8c0.7-4,0.4-7.1-1-9.2c-1.4-2.1-3.5-3.4-6.1-4.1
					c-2.7-0.6-6.1-1.1-10.3-1.2l0.7-2.8c8.8-0.8,15.9-0.6,21.4,0.7c5.5,1.3,9.2,3.5,11.3,6.7c2.1,3.2,2.7,7.3,1.9,12.1
					c-1.3,7-4.4,12.5-9.4,16.5C527.6,138.6,520.2,140.6,510.3,140.6z"/>
				<path fill="#2B2B2B" d="M542.5,139.5c2.8-2.8,8.2-9,16.1-18.6c0.7-0.9,1.5-1.9,2.3-2.8c0.8-1,1.5-1.9,2.3-2.8l7.6-9.1l19.3-1.8
					l-10.2,13.5c-0.2,0.5-2.6,3.9-7.3,10.3c-1.7,2.4-3.2,4.6-4.5,6.5c-1.4,2-2.5,3.6-3.4,4.7H542.5z M591.8,102.3
					c1.7-9.8,2.7-15.8,2.8-18c-0.7-0.1-1.5-0.2-2.2-0.2c-0.7,0-1.6-0.1-2.5-0.1c-3.6,0-6.3,0.9-8.1,2.7c-1.8,1.8-3,4.2-3.4,7.1
					c-0.6,3.1-0.2,5.6,1,7.6c1.2,1.9,3.4,2.9,6.5,3h1.8c0.9,0,1.7,0,2.3,0l-5.2,5.4c-0.5,0.1-0.8,0.1-1.2,0.1c-0.3,0-0.6,0-0.8-0.1
					c-0.1-0.1-0.3-0.2-0.6-0.4c-0.3-0.2-0.8-0.4-1.6-0.6c-4.3-0.1-8.2-0.7-11.6-1.9c-3.4-1.2-6.1-3.1-7.9-5.9
					c-1.8-2.7-2.4-6.3-1.7-10.7c1-6.1,4.4-11,10.3-14.7c5.8-3.8,14.2-5.6,25.3-5.6c5.1,0,10.2,0.2,15.3,0.7l6.9,0.7
					c-1.3,2.5-2.3,5.4-3.2,8.8c-0.8,3.4-2.2,10.2-4,20.4l-0.6,2.8l-1.9,11.8c-1.4,8.4-2.2,14-2.3,16.8c-0.2,2.8,0.2,5.4,1.1,7.6
					h-23.8c1.6-2.2,2.8-4.8,3.7-7.7c0.9-2.9,2-8.5,3.3-16.7L591.8,102.3z"/>
			</g>
		</g>
		<g>
			<g>
				<path fill="#647C00" d="M269.5,56.7c0.2-0.3,0.4-0.7,0.5-1c0.1-0.4,0.3-1,0.5-1.9c0.2-0.9,0.5-2.2,0.8-4l2.9-16.4
					c0-0.1,0-0.2,0-0.3s0-0.2,0-0.2c0.3-1.6,0.5-2.8,0.6-3.7c0.1-0.9,0.2-1.5,0.1-1.8c0-0.4-0.1-0.7-0.2-1c1.3-0.1,2.6-0.3,3.9-0.4
					c1.3-0.1,2.4-0.1,3.5-0.1c3.2,0,5.5,0.6,6.8,1.9c1.3,1.3,1.7,3,1.3,5.2c-0.2,1.2-0.7,2.3-1.5,3.3c-0.8,1-2,1.8-3.5,2.5
					c-1.6,0.7-3.5,1.1-5.9,1.2v-0.1c2.4-0.1,4.4,0.2,6.1,0.8c1.7,0.6,3,1.5,3.8,2.8c0.8,1.3,1.1,3,0.7,5c-0.3,1.6-1,3.1-2,4.5
					c-1,1.3-2.3,2.4-4,3.2c-1.7,0.8-3.7,1.2-5.9,1.2c-2.8,0-5.6-0.2-8.4-0.5L269.5,56.7z M273.7,53.9c0.5,0.2,1.1,0.4,1.9,0.5
					c0.8,0.1,1.7,0.2,2.9,0.2c2.3,0,4.2-0.6,5.7-1.8c1.5-1.2,2.4-2.8,2.8-4.9c0.5-2.9-0.3-4.8-2.5-5.9c-2.2-1.1-5.1-1.6-8.8-1.6
					l0.1-0.8c3.3,0,5.9-0.5,7.9-1.6c2-1,3.2-2.6,3.5-4.6c0.3-1.5,0-2.6-0.9-3.5c-0.8-0.9-2.4-1.4-4.8-1.4c-0.4,0-0.8,0-1.2,0
					c-0.4,0-0.8,0-1.2,0.1c-0.2,0-0.3,0-0.5,0c-0.2,0-0.3,0-0.5,0c-0.3,1-0.6,2.3-0.9,4.1s-0.8,4.2-1.4,7.5c0,0.1,0,0.2,0,0.3
					c0,0.1,0,0.2-0.1,0.3c-0.3,2-0.6,3.8-0.9,5.3c-0.3,1.5-0.5,2.8-0.7,3.9L273.7,53.9z"/>
				<path fill="#647C00" d="M302.2,57.1c-1.9,0-3.6-0.4-4.9-1.2c-1.3-0.8-2.3-2-2.8-3.6c-0.5-1.6-0.6-3.5-0.2-5.8
					c0.4-2.1,1.1-4,2.2-5.6c1.1-1.6,2.5-2.8,4.1-3.7c1.6-0.9,3.4-1.3,5.3-1.3c0.8,0,1.6,0.1,2.5,0.3c0.9,0.2,1.7,0.5,2.5,0.8l0,3.2
					c-0.8-0.6-1.6-1-2.5-1.3s-1.8-0.4-2.8-0.4c-1.3,0-2.5,0.3-3.7,0.9c-1.1,0.6-2.1,1.5-2.9,2.8c-0.8,1.2-1.4,2.6-1.6,4.3
					c-0.3,1.8-0.3,3.3,0.1,4.5c0.4,1.2,1,2.1,2,2.7c0.9,0.6,2.1,0.9,3.4,0.9c1.1,0,2.1-0.1,3-0.4c0.9-0.3,1.9-0.7,2.9-1.3l-1,3.1
					c-0.8,0.3-1.7,0.6-2.6,0.8C304.1,57,303.2,57.1,302.2,57.1z"/>
				<path fill="#647C00" d="M320.7,57.1c-1.8,0-3.3-0.4-4.6-1.2c-1.3-0.8-2.2-2-2.8-3.6c-0.6-1.6-0.7-3.5-0.3-5.7
					c0.4-2.2,1.1-4,2.2-5.6c1.1-1.6,2.4-2.8,4-3.7s3.2-1.3,5-1.3c1.7,0,3,0.3,4,0.9c1,0.6,1.7,1.5,2.1,2.6c0.4,1.1,0.4,2.4,0.1,4
					c-0.1,0.5-0.2,1-0.4,1.6c-0.2,0.6-0.4,1.2-0.6,1.7h-13.9l0.3-1.6l11.5-0.7c0.1-0.2,0.1-0.4,0.2-0.7c0.1-0.3,0.1-0.6,0.2-1
					c0.3-1.3,0-2.4-0.6-3.2c-0.7-0.8-1.8-1.2-3.3-1.2c-1.2,0-2.3,0.3-3.4,1c-1.1,0.6-2,1.6-2.8,2.8c-0.8,1.2-1.3,2.6-1.5,4.2
					c-0.3,1.8-0.3,3.3,0.1,4.5c0.4,1.2,1.1,2.2,2.1,2.8c1,0.6,2.1,0.9,3.5,0.9c1.2,0,2.2-0.1,3.2-0.4c0.9-0.3,1.9-0.7,3-1.3l-1,3.1
					c0,0-0.1,0-0.1,0.1c-0.1,0-0.1,0-0.1,0c-0.9,0.3-1.8,0.6-2.8,0.8C322.9,57,321.9,57.1,320.7,57.1z"/>
				<path fill="#647C00" d="M351.7,57.1c-1.9,0-3.6-0.4-4.9-1.2c-1.3-0.8-2.3-2-2.8-3.6c-0.5-1.6-0.6-3.5-0.2-5.8
					c0.4-2.1,1.1-4,2.2-5.6c1.1-1.6,2.5-2.8,4.1-3.7c1.6-0.9,3.4-1.3,5.3-1.3c0.8,0,1.6,0.1,2.5,0.3c0.9,0.2,1.7,0.5,2.5,0.8l0,3.2
					c-0.8-0.6-1.6-1-2.5-1.3c-0.9-0.3-1.8-0.4-2.8-0.4c-1.3,0-2.5,0.3-3.7,0.9c-1.1,0.6-2.1,1.5-2.9,2.8c-0.8,1.2-1.4,2.6-1.6,4.3
					c-0.3,1.8-0.3,3.3,0.1,4.5c0.4,1.2,1,2.1,2,2.7c0.9,0.6,2.1,0.9,3.4,0.9c1.1,0,2.1-0.1,3-0.4c0.9-0.3,1.9-0.7,2.9-1.3l-1,3.1
					c-0.8,0.3-1.7,0.6-2.6,0.8S352.7,57.1,351.7,57.1z"/>
				<path fill="#647C00" d="M362.1,56.7c0.3-0.4,0.5-1.1,0.8-2.2c0.3-1.1,0.6-3.1,1.1-5.9c0-0.2,0-0.3,0.1-0.5c0-0.1,0-0.3,0.1-0.4
					l0.9-5.2c0.4-2.2,0.6-3.7,0.7-4.5s0-1.3-0.2-1.8h4.3c-0.3,0.4-0.6,1-0.8,1.7c-0.2,0.7-0.5,2.2-0.9,4.5l-1.6,9.3l12.9-15.5h4.2
					c-0.3,0.4-0.6,1.2-0.8,2.2c-0.2,1-0.6,3-1.1,5.8l-0.2,1l-0.9,5.2c-0.4,2.2-0.6,3.7-0.6,4.5c0,0.8,0.1,1.3,0.3,1.7h-4.3
					c0.3-0.4,0.6-1,0.8-1.7c0.2-0.7,0.5-2.2,0.9-4.5l1.8-10h0l-13.6,16.3H362.1z"/>
				<path fill="#647C00" d="M384,56.6c0.9-0.5,1.6-1.3,2.2-2.4c0.6-1.1,1.2-2.6,1.7-4.4c0.5-1.8,1.1-4.4,1.8-7.6
					c0.3-1.4,0.5-2.5,0.6-3.3c0.1-0.8,0.2-1.3,0.1-1.7c0-0.3-0.1-0.6-0.3-0.9h4.3c-0.3,0.4-0.5,0.8-0.7,1.3s-0.4,1.4-0.7,2.8
					c-0.1,0.3-0.2,1-0.4,1.9c-0.7,3.3-1.4,5.9-2,7.8c-0.7,1.8-1.5,3.3-2.5,4.4c-1,1.1-2.4,1.8-4,2.2L384,56.6z M392.8,38.8l0.4-2.5
					H404l-0.5,2.5H392.8z M403.4,50.5c-0.4,2.2-0.6,3.7-0.7,4.5c0,0.8,0,1.3,0.2,1.7h-4.3c0.3-0.4,0.6-1,0.8-1.7
					c0.2-0.7,0.5-2.2,0.9-4.5l0.7-3.8l0.8-4.2c0.4-2.2,0.6-3.7,0.7-4.5s0-1.3-0.2-1.8h4.3c-0.3,0.4-0.6,1-0.8,1.7
					c-0.2,0.7-0.5,2.2-0.9,4.5l-0.8,4.2L403.4,50.5z"/>
				<path fill="#647C00" d="M416.2,57.1c-2.4,0-4.8-0.1-7.3-0.4c0.3-0.4,0.5-0.9,0.7-1.5c0.2-0.6,0.4-1.8,0.7-3.5c0-0.1,0-0.1,0-0.2
					c0-0.1,0-0.1,0-0.2l1.6-8.7c0.4-2.3,0.6-3.8,0.6-4.5c0-0.7,0-1.3-0.2-1.7h4.3c-0.4,0.4-0.7,1-0.9,1.7c-0.2,0.8-0.5,2.3-0.9,4.5
					c-0.4,2.4-0.8,4.6-1.1,6.6c-0.3,2-0.6,3.4-0.7,4.2c0.2,0.4,0.6,0.8,1.3,0.9s1.4,0.3,2.2,0.3c1.5,0,2.7-0.4,3.7-1.1
					c1-0.7,1.6-1.8,1.8-3.3c0.3-1.5,0.1-2.6-0.7-3.3c-0.7-0.7-1.7-1.2-2.9-1.4c-1.2-0.2-2.7-0.3-4.4-0.2l0.1-0.7
					c2.7-0.3,5-0.2,6.6,0.1c1.7,0.4,2.9,1,3.5,2c0.7,1,0.9,2.2,0.6,3.8c-0.3,2-1.2,3.6-2.7,4.8C420.7,56.5,418.7,57.1,416.2,57.1z
					 M432.9,50.5c-0.4,2.2-0.6,3.7-0.6,4.5c0,0.8,0,1.3,0.2,1.7h-4.3c0.4-0.4,0.7-1,0.9-1.7c0.2-0.7,0.5-2.2,0.9-4.5l0.7-3.8
					l0.8-4.2c0.4-2.2,0.6-3.7,0.7-4.5s0-1.3-0.2-1.8h4.3c-0.3,0.4-0.6,1-0.8,1.7c-0.2,0.7-0.5,2.2-0.9,4.5l-0.7,4.2L432.9,50.5z"/>
				<path fill="#647C00" d="M453.7,50.5c-0.4,2.2-0.7,3.7-0.7,4.5c0,0.8,0,1.3,0.3,1.7H449c0.3-0.4,0.6-1,0.8-1.7
					c0.2-0.7,0.5-2.2,0.9-4.5l0.7-3.8l0.7-4.2c0.4-2.2,0.6-3.7,0.7-4.5s0-1.3-0.2-1.8h4.3c-0.3,0.4-0.6,1-0.8,1.7
					c-0.2,0.7-0.5,2.2-0.9,4.5l-0.7,4.2L453.7,50.5z M455.5,36.3h12.6l-0.5,2.5h-12.6L455.5,36.3z M467.6,50.5
					c-0.4,2.2-0.7,3.7-0.7,4.5c0,0.8,0,1.3,0.3,1.7h-4.3c0.3-0.4,0.6-1,0.8-1.7c0.2-0.7,0.5-2.2,0.9-4.5l0.7-3.8l0.7-4.2
					c0.4-2.2,0.6-3.7,0.7-4.5s0-1.3-0.2-1.8h4.3c-0.3,0.4-0.6,1-0.8,1.7c-0.2,0.7-0.5,2.2-0.9,4.5l-0.7,4.2L467.6,50.5z"/>
				<path fill="#647C00" d="M476.8,60.1c-0.4,2-0.6,3.3-0.6,4c-0.1,0.7,0,1.3,0.2,1.7l-3.6,0.8c0.1-0.8,0.2-1.2,0.2-1.3
					c0.1-0.6,0.3-1.6,0.5-2.9l3.5-19.7c0.4-1.9,0.6-3.3,0.6-4.1s-0.1-1.4-0.3-1.8l3.7-0.8c-0.1,0.5-0.1,0.9-0.2,1.4
					c-0.1,0.5-0.2,0.9-0.3,1.4l-0.3,2h0.1c0.4-0.7,0.9-1.5,1.6-2.2c0.7-0.7,1.6-1.3,2.6-1.8c1-0.5,2.2-0.8,3.5-0.8
					c1.3,0,2.5,0.4,3.5,1.1c1,0.7,1.7,1.8,2.2,3.3c0.4,1.5,0.4,3.2,0,5.4c-0.4,2.5-1.2,4.6-2.4,6.3c-1.2,1.7-2.5,3-4.1,3.9
					c-1.6,0.9-3.3,1.3-5.1,1.3c-0.8,0-1.5-0.1-2.2-0.3c-0.7-0.2-1.6-0.5-2.5-1L476.8,60.1z M482.4,54.5c1.1,0,2.2-0.3,3.3-0.9
					c1.1-0.6,2.2-1.5,3.1-2.8c0.9-1.3,1.5-3,1.9-5.1c0.3-1.6,0.3-2.9,0-4c-0.3-1.1-0.8-1.9-1.5-2.4c-0.7-0.5-1.6-0.8-2.7-0.8
					c-1.3,0-2.6,0.3-3.8,0.8c-1.2,0.6-2.1,1.1-2.7,1.8l-2.1,12.2c0.8,0.4,1.5,0.7,2.1,0.9C480.7,54.5,481.5,54.5,482.4,54.5z"/>
				<path fill="#647C00" d="M495.7,56.7c0.3-0.4,0.5-1.1,0.8-2.2c0.3-1.1,0.6-3.1,1.1-5.9c0-0.2,0-0.3,0.1-0.5c0-0.1,0-0.3,0.1-0.4
					l0.9-5.2c0.4-2.2,0.6-3.7,0.7-4.5s0-1.3-0.2-1.8h4.3c-0.3,0.4-0.6,1-0.8,1.7c-0.2,0.7-0.5,2.2-0.9,4.5l-1.6,9.3l12.9-15.5h4.2
					c-0.3,0.4-0.6,1.2-0.8,2.2c-0.2,1-0.6,3-1.1,5.8l-0.2,1l-0.9,5.2c-0.4,2.2-0.6,3.7-0.6,4.5c0,0.8,0.1,1.3,0.3,1.7h-4.3
					c0.3-0.4,0.6-1,0.8-1.7c0.2-0.7,0.5-2.2,0.9-4.5l1.8-10h0l-13.6,16.3H495.7z"/>
				<path fill="#647C00" d="M523.1,60.1c-0.4,2-0.6,3.3-0.6,4c-0.1,0.7,0,1.3,0.2,1.7l-3.6,0.8c0.1-0.8,0.2-1.2,0.2-1.3
					c0.1-0.6,0.3-1.6,0.5-2.9l3.5-19.7c0.4-1.9,0.6-3.3,0.6-4.1s-0.1-1.4-0.3-1.8l3.7-0.8c-0.1,0.5-0.1,0.9-0.2,1.4
					c-0.1,0.5-0.2,0.9-0.3,1.4l-0.3,2h0.1c0.4-0.7,0.9-1.5,1.6-2.2c0.7-0.7,1.6-1.3,2.6-1.8c1-0.5,2.2-0.8,3.5-0.8
					c1.3,0,2.5,0.4,3.5,1.1c1,0.7,1.7,1.8,2.2,3.3c0.4,1.5,0.4,3.2,0,5.4c-0.4,2.5-1.2,4.6-2.4,6.3c-1.2,1.7-2.5,3-4.1,3.9
					c-1.6,0.9-3.3,1.3-5.1,1.3c-0.8,0-1.5-0.1-2.2-0.3c-0.7-0.2-1.6-0.5-2.5-1L523.1,60.1z M528.8,54.5c1.1,0,2.2-0.3,3.3-0.9
					c1.1-0.6,2.2-1.5,3.1-2.8c0.9-1.3,1.5-3,1.9-5.1c0.3-1.6,0.3-2.9,0-4c-0.3-1.1-0.8-1.9-1.5-2.4c-0.7-0.5-1.6-0.8-2.7-0.8
					c-1.3,0-2.6,0.3-3.8,0.8c-1.2,0.6-2.1,1.1-2.7,1.8l-2.1,12.2c0.8,0.4,1.5,0.7,2.1,0.9C527,54.5,527.8,54.5,528.8,54.5z"/>
				<path fill="#647C00" d="M550.2,57.1c-1.8,0-3.4-0.4-4.7-1.3c-1.3-0.9-2.2-2.2-2.8-3.8c-0.5-1.6-0.6-3.5-0.2-5.7
					c0.4-2.1,1.1-3.9,2.2-5.5c1.1-1.6,2.5-2.8,4.1-3.6c1.6-0.8,3.3-1.3,5.2-1.3c1.8,0,3.4,0.4,4.7,1.3c1.3,0.8,2.2,2,2.8,3.6
					c0.6,1.6,0.7,3.4,0.3,5.5c-0.4,2.2-1.1,4.1-2.3,5.7c-1.1,1.6-2.5,2.9-4.1,3.8C553.8,56.7,552,57.1,550.2,57.1z M550.7,54.5
					c1.2,0,2.4-0.3,3.5-1c1.1-0.7,2.1-1.6,2.9-2.9c0.8-1.2,1.4-2.7,1.7-4.3c0.3-1.7,0.2-3.1-0.1-4.2c-0.4-1.2-1-2.1-1.9-2.7
					c-0.9-0.6-2-0.9-3.3-0.9c-1.2,0-2.4,0.3-3.5,0.9c-1.1,0.6-2.1,1.5-2.9,2.6c-0.8,1.1-1.3,2.5-1.6,4.1c-0.3,1.7-0.2,3.2,0.1,4.5
					c0.4,1.3,1,2.2,1.9,2.9C548.3,54.2,549.4,54.5,550.7,54.5z"/>
				<path fill="#647C00" d="M561.1,63c0.3-0.6,0.5-1.4,0.6-2.5c0-0.1,0.1-0.3,0.1-0.4c0-0.1,0.1-0.3,0.1-0.4l0.8-4.6l2.5,0.7
					l-0.4,2.4c-0.3,1.6-0.4,2.7-0.4,3.4c0,0.7,0.1,1.2,0.3,1.6L561.1,63z M562.7,55.5c0-0.2,0.1-0.4,0.1-0.8l0.2-0.9
					c0.4,0.1,1.1,0.1,1.9,0.1c0.9,0,2.4,0,4.6,0h9.8c1.9,0,3.3,0,4.2,0c0.9,0,1.6,0,2-0.1c0,0.1,0,0.2-0.1,0.3c0,0.1,0,0.2-0.1,0.3
					c0,0.1,0,0.3-0.1,0.4c0,0.1,0,0.3-0.1,0.5l-0.5,1.9c-0.3-0.2-0.7-0.4-1.2-0.5c-0.5-0.1-1.2-0.2-2.1-0.2c-0.9,0-2.1,0-3.6,0h-2.1
					c-3.3,0-5.9,0-7.8,0c-1.9,0-3.2,0.1-3.9,0.2c-0.8,0.1-1.3,0.3-1.6,0.5L562.7,55.5z M564.8,54.1c0.6-0.2,1.1-0.7,1.6-1.5
					c0.4-0.8,0.9-1.8,1.2-3.1c0.4-1.3,0.8-3.2,1.4-5.6c0.1-0.3,0.1-0.6,0.2-0.8c0.1-0.3,0.1-0.6,0.2-0.8c0.3-1.3,0.5-2.4,0.7-3.2
					c0.1-0.8,0.2-1.4,0.1-1.7c0-0.3-0.1-0.7-0.3-1h4.2c-0.3,0.4-0.5,0.9-0.7,1.5c-0.2,0.6-0.5,1.7-0.9,3.4l-0.2,1
					c-0.6,3-1.2,5.3-1.8,6.9c-0.5,1.6-1.2,2.8-2,3.7c-0.8,0.8-1.9,1.3-3.2,1.4L564.8,54.1z M572.4,38.7l0.4-2.4h10.7l-0.4,2.4H572.4
					z M583,50.5c-0.4,2.2-0.7,3.7-0.7,4.5c0,0.8,0,1.4,0.2,1.7h-4.3c0.3-0.4,0.6-1,0.8-1.7c0.2-0.7,0.5-2.2,1-4.5l0.7-3.8l0.7-4.2
					c0.4-2.2,0.6-3.7,0.7-4.5s0-1.3-0.2-1.8h4.3c-0.4,0.4-0.7,1-0.9,1.7c-0.2,0.7-0.5,2.2-0.9,4.5l-0.8,4.2L583,50.5z M580.5,63.2
					c0.4-0.3,0.7-0.7,0.9-1.3c0.2-0.6,0.4-1.6,0.7-3.1l0.1-0.7l0.5-2.5l2.7-0.7l-0.8,4.7c-0.1,0.3-0.1,0.6-0.2,1
					c-0.1,1-0.2,1.8-0.2,2.3L580.5,63.2z"/>
				<path fill="#647C00" d="M595.2,57.1c-2.4,0-4.8-0.1-7.3-0.4c0.3-0.4,0.5-0.9,0.7-1.5c0.2-0.6,0.4-1.8,0.7-3.5c0-0.1,0-0.1,0-0.2
					c0-0.1,0-0.1,0-0.2l1.6-8.7c0.4-2.3,0.6-3.8,0.6-4.5c0-0.7,0-1.3-0.2-1.7h4.3c-0.4,0.4-0.7,1-0.9,1.7c-0.2,0.8-0.5,2.3-0.9,4.5
					c-0.4,2.4-0.8,4.6-1.1,6.6c-0.3,2-0.6,3.4-0.7,4.2c0.2,0.4,0.6,0.8,1.3,0.9s1.4,0.3,2.2,0.3c1.5,0,2.7-0.4,3.7-1.1
					c1-0.7,1.6-1.8,1.8-3.3c0.3-1.5,0.1-2.6-0.7-3.3c-0.7-0.7-1.7-1.2-2.9-1.4c-1.2-0.2-2.7-0.3-4.4-0.2l0.1-0.7
					c2.7-0.3,5-0.2,6.6,0.1c1.7,0.4,2.9,1,3.5,2c0.7,1,0.9,2.2,0.6,3.8c-0.3,2-1.2,3.6-2.7,4.8C599.7,56.5,597.7,57.1,595.2,57.1z
					 M611.9,50.5c-0.4,2.2-0.6,3.7-0.6,4.5c0,0.8,0,1.3,0.2,1.7h-4.3c0.4-0.4,0.7-1,0.9-1.7c0.2-0.7,0.5-2.2,0.9-4.5l0.7-3.8
					l0.8-4.2c0.4-2.2,0.6-3.7,0.7-4.5s0-1.3-0.2-1.8h4.3c-0.3,0.4-0.6,1-0.8,1.7c-0.2,0.7-0.5,2.2-0.9,4.5l-0.7,4.2L611.9,50.5z"/>
			</g>
		</g>
	</g>
</g>
</svg>
